{"title":"[ShepardTDS] Blue Exorcist Dual Audio [720p 8-bit x265 HEVC] 1-2","uid":12620317,"size":4152847097,"categoryP":"video","categoryS":"tv_shows","magnet":"?xt=urn:btih:9879fab073fb09cd4a16c2109d112545bbd42d55&amp;dn=%5BShepardTDS%5D+Blue+Exorcist+Dual+Audio+%5B720p+8-bit+x265+HEVC%5D+1-2&amp;tr=udp%3A%2F%2Ftracker.leechers-paradise.org%3A6969&amp;tr=udp%3A%2F%2Fzer0day.ch%3A1337&amp;tr=udp%3A%2F%2Fopen.demonii.com%3A1337&amp;tr=udp%3A%2F%2Ftracker.coppersurfer.tk%3A6969&amp;tr=udp%3A%2F%2Fexodus.desync.com%3A6969","seeders":1,"leechers":1,"uploader":"ShepardTDS","files":25,"time":1445590289,"description":"Constant Quality encoding.\r\nVariable Bit rates\r\n\r\nGeneral\r\n\r\nFormat : Matroska\r\nFile size : 144 MiB\r\nDuration : 24mn 6s\r\nOverall bit rate : 836 Kbps-1,163 kbps\r\nEncoded date : UTC 2015-10-22 06:09:52\r\nWriting application : mkvmerge v7.7.0 ('Six Voices') 32bit built on Feb 28 2015 23:23:00\r\nWriting library : libebml v1.3.1 + libmatroska v1.4.2\r\n\r\nVideo\r\nID : 1\r\nFormat : V_MPEGH/ISO/HEVC\r\nCodec ID : V_MPEGH/ISO/HEVC\r\nDuration : 24mn 6s\r\nBit rate : 436 Kbps-756 kbps\r\nWidth : 1 280 pixels\r\nHeight : 720 pixels\r\nDisplay aspect ratio : 16:9\r\nFrame rate : 23.976 fps\r\nBits/(Pixel*Frame) : 0.020\r\nStream size : 75.1 MiB (52%)\r\n\r\nAudio #1\r\nID : 2\r\nFormat : AC-3\r\nFormat/Info : Audio Coding 3\r\nMode extension : CM (complete main)\r\nCodec ID : A_AC3\r\nDuration : 24mn 6s\r\nBit rate mode : Constant\r\nBit rate : 192 Kbps\r\nChannel(s) : 2 channels\r\nChannel positions : Front: L R\r\nSampling rate : 48.0 KHz\r\nBit depth : 16 bits\r\nCompression mode : Lossy\r\nStream size : 33.1 MiB (23%)\r\nLanguage : English\r\n\r\nAudio #2\r\nID : 3\r\nFormat : AC-3\r\nFormat/Info : Audio Coding 3\r\nMode extension : CM (complete main)\r\nCodec ID : A_AC3\r\nDuration : 24mn 6s\r\nBit rate mode : Constant\r\nBit rate : 192 Kbps\r\nChannel(s) : 2 channels\r\nChannel positions : Front: L R\r\nSampling rate : 48.0 KHz\r\nBit depth : 16 bits\r\nCompression mode : Lossy\r\nStream size : 33.1 MiB (23%)\r\nLanguage : Japanese\r\n\r\nText #1\r\nID : 4\r\nFormat : ASS\r\nCodec ID : S_TEXT/ASS\r\nCodec ID/Info : Advanced Sub Station Alpha\r\nCompression mode : Lossless\r\nTitle : Signs/Songs\r\nLanguage : English\r\n\r\nText #2\r\nID : 5\r\nFormat : ASS\r\nCodec ID : S_TEXT/ASS\r\nCodec ID/Info : Advanced Sub Station Alpha\r\nCompression mode : Lossless\r\nTitle : English Subtitles\r\nLanguage : English\r\n\r\nMenu\r\n00:00:00.000 : en:Prologue\r\n00:00:29.048 : en:Opening\r\n00:01:59.055 : en:Part A\r\n00:12:02.032 : en:Part B\r\n00:21:45.073 : en:Ending\r\n00:23:15.038 : en:Part C\r\n00:23:51.074 : en:Preview","torrent":{"xt":"urn:btih:9879fab073fb09cd4a16c2109d112545bbd42d55","amp;dn":"%5BShepardTDS%5D+Blue+Exorcist+Dual+Audio+%5B720p+8-bit+x265+HEVC%5D+1-2","amp;tr":["udp%3A%2F%2Ftracker.leechers-paradise.org%3A6969","udp%3A%2F%2Fzer0day.ch%3A1337","udp%3A%2F%2Fopen.demonii.com%3A1337","udp%3A%2F%2Ftracker.coppersurfer.tk%3A6969","udp%3A%2F%2Fexodus.desync.com%3A6969"],"infoHash":"9879fab073fb09cd4a16c2109d112545bbd42d55","infoHashBuffer":{"type":"Buffer","data":[152,121,250,176,115,251,9,205,74,22,194,16,157,17,37,69,187,212,45,85]},"announce":[],"urlList":[]}}